<svg xmlns="http://www.w3.org/2000/svg" viewBox="0 0 512 512" width="512" height="512">
  <defs>
    <linearGradient id="goldGrad" x1="0%" y1="0%" x2="100%" y2="100%">
      <stop offset="0%" stop-color="#FDF0CC" />
      <stop offset="50%" stop-color="#D4AF37" />
      <stop offset="100%" stop-color="#997A15" />
    </linearGradient>
    <radialGradient id="bgGrad" cx="50%" cy="50%" r="70%">
      <stop offset="0%" stop-color="#2B2723" />
      <stop offset="100%" stop-color="#141210" />
    </radialGradient>
  </defs>
  <rect width="512" height="512" rx="112" fill="url(#bgGrad)" />
  <rect x="24" y="24" width="464" height="464" rx="96" fill="none" stroke="url(#goldGrad)" stroke-width="6" stroke-opacity="0.6" />
  <rect x="40" y="40" width="432" height="432" rx="84" fill="none" stroke="url(#goldGrad)" stroke-width="2" stroke-dasharray="8 8" stroke-opacity="0.4" />
  <!-- Elegant Royal V Calligraphy Motif -->
  <path d="M 140 160 C 160 160, 180 280, 246 360 C 252 368, 260 368, 266 360 C 332 280, 352 160, 372 160 C 385 160, 395 170, 395 180 C 395 210, 360 300, 290 380 C 275 398, 248 398, 233 380 C 163 300, 128 210, 128 180 C 128 170, 138 160, 140 160 Z" fill="url(#goldGrad)" />
  <!-- Diamond sparkle topper -->
  <path d="M 256 90 L 268 118 L 296 130 L 268 142 L 256 170 L 244 142 L 216 130 L 244 118 Z" fill="url(#goldGrad)" />
</svg>
